<svg width="95" height="95" viewBox="0 0 95 95" fill="none" xmlns="http://www.w3.org/2000/svg">
<g clip-path="url(#clip0_858_3284)">
<path d="M51.509 8.26713C57.7509 0.0401082 66.4286 0 66.4286 0C66.4286 0 67.7194 7.7348 61.5184 15.1859C54.8973 23.142 47.3714 21.8401 47.3714 21.8401C47.3714 21.8401 45.9583 15.5829 51.509 8.26713ZM48.1653 27.2583C51.3765 27.2583 57.3362 22.8442 65.0937 22.8442C78.4467 22.8442 83.6998 32.3458 83.6998 32.3458C83.6998 32.3458 73.4257 37.5987 73.4257 50.3447C73.4257 64.7233 86.2245 69.6786 86.2245 69.6786C86.2245 69.6786 77.2777 94.8605 65.1931 94.8605C59.6427 94.8605 55.3275 91.1201 49.4794 91.1201C43.5196 91.1201 37.6055 95 33.7535 95C22.7185 95.0003 8.77734 71.1127 8.77734 51.911C8.77734 33.0192 20.5776 23.1089 31.6457 23.1089C38.841 23.1089 44.4247 27.2583 48.1653 27.2583Z" fill="white"/>
</g>
<defs>
<clipPath id="clip0_858_3284">
<rect width="95" height="95" fill="white"/>
</clipPath>
</defs>
</svg>
