<svg width="158" height="56" viewBox="0 0 158 56" fill="none" xmlns="http://www.w3.org/2000/svg">
<path fill-rule="evenodd" clip-rule="evenodd" d="M0 0.0439453H158V55.7456H0V0.0439453ZM1.60713 28.029C1.60713 13.9043 36.3763 2.45422 79.2681 2.45422C122.159 2.45422 156.928 13.9043 156.928 28.029C156.928 42.1537 122.159 53.6038 79.2681 53.6038C36.3772 53.6038 1.60713 42.1537 1.60713 28.029Z" fill="white"/>
<path fill-rule="evenodd" clip-rule="evenodd" d="M1.60547 28.0289C1.60547 13.9042 36.3746 2.4541 79.2665 2.4541C122.157 2.4541 156.927 13.9042 156.927 28.0289C156.927 42.1536 122.157 53.6037 79.2665 53.6037C36.3755 53.6037 1.60547 42.1536 1.60547 28.0289Z" fill="#F6D33C" fill-opacity="0.01"/>
<path fill-rule="evenodd" clip-rule="evenodd" d="M22.8073 17.4848H36.612C36.612 17.4848 36.2437 18.0642 36.2437 18.7879V36.5593C36.2437 37.5246 36.6576 38.3455 36.6576 38.3455H22.7617C22.7617 38.3455 23.1755 37.5238 23.1755 36.7029V18.9323C23.1755 18.2567 22.8073 17.4848 22.8073 17.4848ZM43.4847 17.5321H56.6112C56.6112 17.5321 56.243 18.1503 56.243 18.7221V25.0982L60.8946 19.1502C60.8946 19.1502 61.1716 18.7221 61.1716 18.2939V17.6275H74.5278L68.8627 25.5264C68.8627 25.5264 68.5866 25.8591 68.5866 26.0973C68.5866 26.3355 68.8171 26.6682 68.8171 26.6682L76.0944 38.2306H60.0189C60.0189 38.2306 60.2959 37.8033 60.2959 37.3743C60.2959 36.9469 60.0189 36.4225 60.0189 36.4225L56.1957 30.189V36.9469C56.1957 37.5178 56.6103 38.2779 56.6103 38.2779H43.4847C43.4847 38.2779 43.8529 37.7552 43.8529 37.1843V18.7212C43.8529 18.1512 43.4847 17.5321 43.4847 17.5321ZM80.0037 17.6765H103.484V23.9835C103.484 23.9835 102.977 23.5164 102.335 23.5164H92.7113V25.2443H101.091V30.8039C101.091 30.8039 100.538 30.3368 99.9397 30.3368H92.6193V32.2522H102.472C103.024 32.2522 103.347 31.3646 103.347 31.3646V38.2779H80.0037C80.0037 38.2779 80.4193 37.6707 80.4193 37.2501V19.2186C80.4201 18.4704 80.0037 17.6765 80.0037 17.6765ZM113.873 17.4502H132.646C132.646 17.4502 132.278 18.3192 132.278 18.8023C132.278 19.2854 132.6 20.1544 132.6 20.1544L140.1 38.3117H126.02C126.02 38.3117 126.342 37.7805 126.157 37.3464C125.769 36.3821 125.386 35.4159 125.008 34.448H119.21C119.21 34.448 118.059 37.0077 118.059 37.4917C118.059 37.973 118.429 38.3607 118.429 38.3607H106.832L114.102 19.3816C114.102 19.3816 114.379 18.9948 114.379 18.5126C114.379 18.0304 113.873 17.4502 113.873 17.4502ZM121.833 26.7223L120.452 30.4407H123.489L121.833 26.7223Z" fill="white"/>
</svg>
