<svg width="18" height="18" viewBox="0 0 18 18" fill="none" xmlns="http://www.w3.org/2000/svg">
<path d="M12.2811 2.43738C13.1506 2.43998 13.9838 2.78654 14.5986 3.40138C15.2135 4.01621 15.56 4.84936 15.5626 5.71887V12.2811C15.56 13.1506 15.2135 13.9838 14.5986 14.5986C13.9838 15.2135 13.1506 15.56 12.2811 15.5626H5.71887C4.84936 15.56 4.01621 15.2135 3.40138 14.5986C2.78654 13.9838 2.43998 13.1506 2.43738 12.2811V5.71887C2.43998 4.84936 2.78654 4.01621 3.40138 3.40138C4.01621 2.78654 4.84936 2.43998 5.71887 2.43738H12.2811ZM12.2811 1.125H5.71887C3.19219 1.125 1.125 3.19219 1.125 5.71887V12.2811C1.125 14.8078 3.19219 16.875 5.71887 16.875H12.2811C14.8078 16.875 16.875 14.8078 16.875 12.2811V5.71887C16.875 3.19219 14.8078 1.125 12.2811 1.125Z" fill="black"/>
<path d="M13.2655 5.71875C13.0708 5.71875 12.8805 5.66102 12.7186 5.55285C12.5567 5.44469 12.4306 5.29095 12.3561 5.11108C12.2816 4.93121 12.2621 4.73328 12.3 4.54233C12.338 4.35138 12.4318 4.17598 12.5695 4.03832C12.7071 3.90065 12.8825 3.8069 13.0735 3.76891C13.2644 3.73093 13.4623 3.75043 13.6422 3.82493C13.8221 3.89944 13.9758 4.02561 14.084 4.18749C14.1922 4.34937 14.2499 4.53968 14.2499 4.73438C14.2502 4.86372 14.2249 4.99185 14.1755 5.11141C14.1261 5.23096 14.0537 5.33959 13.9622 5.43105C13.8707 5.52252 13.7621 5.59501 13.6425 5.64439C13.523 5.69376 13.3949 5.71903 13.2655 5.71875ZM9 6.37477C9.5192 6.37477 10.0267 6.52873 10.4584 6.81718C10.8901 7.10563 11.2266 7.51562 11.4253 7.99529C11.624 8.47497 11.676 9.00279 11.5747 9.51202C11.4734 10.0212 11.2234 10.489 10.8562 10.8561C10.4891 11.2232 10.0214 11.4733 9.51214 11.5746C9.00291 11.6758 8.47509 11.6239 7.99541 11.4252C7.51574 11.2265 7.10575 10.89 6.8173 10.4583C6.52885 10.0266 6.37488 9.51908 6.37488 8.99988C6.37563 8.30389 6.65244 7.63661 7.14459 7.14447C7.63673 6.65232 8.30401 6.37551 9 6.37477ZM9 5.06238C8.22124 5.06238 7.45996 5.29331 6.81244 5.72597C6.16493 6.15863 5.66025 6.77358 5.36223 7.49307C5.06421 8.21255 4.98623 9.00425 5.13816 9.76805C5.29009 10.5319 5.6651 11.2334 6.21577 11.7841C6.76644 12.3348 7.46803 12.7098 8.23183 12.8617C8.99563 13.0137 9.78733 12.9357 10.5068 12.6377C11.2263 12.3396 11.8413 11.835 12.2739 11.1874C12.7066 10.5399 12.9375 9.77865 12.9375 8.99988C12.9375 7.95559 12.5227 6.95407 11.7842 6.21565C11.0458 5.47723 10.0443 5.06238 9 5.06238Z" fill="black"/>
</svg>
