<svg width="99" height="101" viewBox="0 0 99 101" fill="none" xmlns="http://www.w3.org/2000/svg">
<g clip-path="url(#clip0_1129_8540)">
<path d="M99 50.2441C99 77.6005 76.8147 99.7441 49.5 99.7441C22.1436 99.7441 0 77.5588 0 50.2441C0 22.8878 22.1853 0.744141 49.5 0.744141C76.8147 0.744141 99 22.8878 99 50.2441Z" fill="white"/>
<path d="M54.4624 22.1371C54.0454 22.0537 51.9603 21.7201 49.4999 21.7201C47.0395 21.7201 44.9544 22.0537 44.5374 22.1371C44.2872 22.1788 44.2038 21.9286 44.3706 21.8035C44.5374 21.6784 49.4999 17.8836 49.4999 17.8836C49.4999 17.8836 54.4624 21.6784 54.6292 21.8035C54.796 21.9286 54.7126 22.1788 54.4624 22.1371ZM45.8718 46.6578C45.8718 46.6578 45.6216 46.7412 45.5382 46.9914C46.5808 47.7837 47.2897 49.6186 49.4582 49.6186C51.6267 49.6186 52.3356 47.7837 53.3782 46.9914C53.2948 46.7412 53.0445 46.6578 53.0445 46.6578C53.0445 46.6578 51.6684 46.9914 49.4582 46.9914C47.248 46.9914 45.8718 46.6578 45.8718 46.6578ZM49.4582 43.6136C48.8744 43.6136 48.7076 43.4051 48.3322 43.4051C47.9569 43.4051 47.1646 43.7387 46.9978 43.9889C46.9978 44.114 47.0812 44.2391 47.1646 44.3642C48.0403 44.4893 48.4574 44.9897 49.4582 44.9897C50.459 44.9897 50.8761 44.4893 51.7518 44.3642C51.8769 44.2391 51.9186 44.114 51.9186 43.9889C51.7518 43.697 51.0012 43.4051 50.5841 43.4051C50.2088 43.3634 50.0837 43.6136 49.4582 43.6136ZM98.9165 52.9548C98.8331 54.1224 98.7497 55.3318 98.6246 56.4577C93.0365 57.3751 91.0349 52.4126 85.28 52.6211C85.6136 53.8305 85.9055 55.0815 86.1141 56.3326C90.8681 56.3326 92.7446 60.753 98.0408 60.0858C97.7489 61.4202 97.4152 62.7547 97.0399 64.0891C92.8697 64.5061 91.4102 60.3777 86.5728 60.4611C86.6145 61.17 86.6145 61.8372 86.6145 62.5462C86.6145 62.9215 86.6145 63.3385 86.5728 63.7138C90.7013 63.6721 92.0357 67.467 95.9557 67.3002C95.4553 68.6346 94.9131 69.9274 94.3293 71.2201C91.4936 71.0533 90.5344 67.467 86.2809 67.7589C86.1558 68.6763 85.9889 69.5938 85.7804 70.5112C89.4919 70.261 90.2842 73.6805 92.9531 73.9307C92.2859 75.1818 91.5353 76.3911 90.7847 77.5588C89.2 76.7248 87.8238 74.181 84.863 74.0141C85.1549 73.055 85.4468 72.0959 85.6553 71.1367C82.9864 71.1367 79.9839 70.0942 77.4401 67.8006C78.2741 63.0883 70.9763 58.3343 70.9763 54.873C70.9763 51.1616 72.8529 49.0765 72.8529 44.0306C72.8529 40.2774 71.018 36.2323 68.3074 33.48C67.7653 32.9379 67.2231 32.5209 66.5976 32.1039C69.0997 35.2315 71.0597 38.9013 71.0597 43.1965C71.0597 47.9505 68.8495 50.4526 68.8495 54.8313C68.8495 59.21 75.2716 63.0049 75.2716 67.5087C75.2716 69.3019 74.6878 71.0116 72.8529 74.4312C75.7303 77.3086 79.4835 78.8516 81.9022 78.8516C82.6945 78.8516 83.1115 78.6013 83.4034 78.0175C83.6536 77.4754 83.8622 76.9333 84.0707 76.3911C86.6562 76.4746 87.8655 78.8516 89.2834 79.8107C88.4911 80.8532 87.657 81.8958 86.7813 82.8966C85.8221 81.8124 84.5294 80.0192 82.6111 79.5188C82.2775 80.186 81.9022 80.8115 81.5269 81.4788C83.1532 81.9375 84.2792 83.5639 85.1549 84.6481C84.2375 85.6072 83.2366 86.5247 82.2358 87.4421C81.6103 86.483 80.6094 85.2319 79.5252 84.523C79.1082 85.0651 78.6911 85.6072 78.2741 86.1494C79.2333 86.7749 80.0256 87.9425 80.5677 88.86C79.4001 89.8191 78.1907 90.6949 76.9397 91.5289C76.3141 86.483 69.475 83.0634 71.3099 77.2252C70.6844 78.2677 69.9755 79.5605 69.9755 81.1034C69.9755 85.3153 74.4793 88.6932 74.8129 92.8633C73.8954 93.4055 72.9363 93.9476 71.9355 94.448C71.7686 89.8191 67.0146 84.7732 67.0146 81.02C67.0146 76.8082 72.561 72.5546 72.561 67.5504C72.561 62.5462 66.1806 59.0849 66.1806 54.7062C66.1806 50.3275 68.8912 47.8254 68.8912 42.1957C68.8912 38.0672 66.9312 33.9387 63.9287 31.2698C63.3866 30.8111 62.8862 30.4358 62.2189 30.1022C65.0547 33.5217 66.7227 36.6077 66.7227 41.32C66.7227 46.6161 63.5951 49.5352 63.5951 54.7062C63.5951 59.8772 69.8504 62.7547 69.8504 67.5504C69.8504 72.3461 64.0121 76.4329 64.0121 81.3954C64.0121 85.8992 69.1414 90.4029 69.2248 95.7408C68.0989 96.2412 66.9729 96.6999 65.8053 97.0752C66.4725 91.6957 60.676 86.1077 60.676 81.6873C60.676 76.8916 66.7227 72.7214 66.7227 67.5504C66.7227 62.3794 60.5926 59.9607 60.5926 54.6228C60.5926 49.285 64.3874 46.3242 64.3874 40.4442C64.3874 35.857 62.1355 31.7286 58.7994 29.1847C58.716 29.143 58.6743 29.0596 58.5909 29.0179C58.299 28.7677 58.0071 29.0596 58.2573 29.3516C60.5926 32.2707 61.8436 35.2315 61.8436 39.6102C61.8436 44.9897 57.5066 49.3684 57.5066 54.5811C57.5066 60.753 63.3449 62.5045 63.3449 67.5504C63.3449 72.5963 57.0896 76.6414 57.0896 82.0209C57.0896 86.9834 63.0113 92.5297 61.9687 98.2429C60.8011 98.5348 59.5917 98.8267 58.3824 99.0352C59.5083 91.9042 53.7118 86.7332 53.7118 82.0626C53.7118 77.0167 60.1756 72.4712 60.1756 67.5504C60.1756 62.8798 55.5467 61.3785 54.9211 56.5828C54.8377 55.9156 54.2956 55.4569 53.5867 55.582C52.6275 55.7488 51.4182 56.3743 49.5416 56.3743C47.6233 56.3743 46.4557 55.7488 45.4965 55.582C44.7876 55.4569 44.2455 55.9573 44.1621 56.5828C43.5365 61.3785 38.9076 62.8798 38.9076 67.5504C38.9076 72.5129 45.3714 77.0167 45.3714 82.0626C45.3714 86.7332 39.5749 91.8625 40.7008 99.0352C39.4915 98.8267 38.2821 98.5348 37.1145 98.2429C36.1136 92.488 41.9936 86.9834 41.9936 82.0209C41.9936 76.6414 35.7383 72.5963 35.7383 67.5504C35.7383 62.5045 41.5766 60.753 41.5766 54.5811C41.5766 49.3684 37.2396 44.9897 37.2396 39.6102C37.2396 35.2315 38.4906 32.2707 40.8259 29.3516C41.0344 29.0596 40.7842 28.8094 40.4923 29.0179C40.4089 29.0596 40.3672 29.143 40.2838 29.1847C36.9894 31.7286 34.6958 35.857 34.6958 40.4442C34.6958 46.3242 38.4906 49.285 38.4906 54.6228C38.4906 59.9607 32.3605 62.3794 32.3605 67.5504C32.3605 72.7214 38.4072 76.8916 38.4072 81.6873C38.4072 86.1077 32.6107 91.654 33.2779 97.0752C32.1103 96.6582 30.9843 96.2412 29.8584 95.7408C29.9418 90.4029 35.0711 85.8992 35.0711 81.3954C35.0711 76.4329 29.2328 72.3878 29.2328 67.5504C29.2328 62.713 35.4881 59.8772 35.4881 54.7062C35.4881 49.5352 32.3605 46.6161 32.3605 41.32C32.3605 36.6077 34.0285 33.5217 36.8643 30.1022C36.2387 30.4358 35.6966 30.8111 35.1545 31.2698C32.152 33.9387 30.192 38.1089 30.192 42.1957C30.192 47.8254 32.9026 50.3275 32.9026 54.7062C32.9026 59.0849 26.5222 62.5462 26.5222 67.5504C26.5222 72.5546 32.0686 76.7665 32.0686 81.02C32.0686 84.8149 27.3146 89.8608 27.1477 94.448C26.1886 93.9476 25.2295 93.4472 24.2703 92.8633C24.6456 88.6515 29.1494 85.3153 29.1494 81.1034C29.1494 79.5605 28.4405 78.2677 27.815 77.2252C29.6499 83.0634 22.8108 86.5247 22.1852 91.5289C20.9342 90.6949 19.7248 89.8191 18.5572 88.86C19.0993 87.9425 19.9333 86.7749 20.8508 86.1494C20.4338 85.6072 19.975 85.1068 19.5997 84.523C18.4738 85.1902 17.5146 86.4413 16.8891 87.4421C15.8883 86.5664 14.8874 85.6072 13.97 84.6481C14.8457 83.5639 15.9717 81.8958 17.598 81.4788C17.2227 80.8532 16.8474 80.186 16.5138 79.5188C14.5955 80.0192 13.3028 81.8124 12.3436 82.8966C11.4679 81.8958 10.6338 80.8949 9.84151 79.8107C11.3011 78.8516 12.4687 76.5163 15.0959 76.3911C15.3044 76.9333 15.5547 77.4754 15.7632 78.0175C16.0551 78.643 16.4721 78.8516 17.2644 78.8516C19.6831 78.8516 23.4363 77.2669 26.3137 74.4312C24.4371 71.0116 23.895 69.3019 23.895 67.5087C23.895 63.0049 30.3171 59.21 30.3171 54.8313C30.3171 50.4526 28.1069 47.9505 28.1069 43.1965C28.1069 38.9013 30.0252 35.2315 32.569 32.1039C31.9435 32.4792 31.4013 32.9379 30.8592 33.48C28.1069 36.2323 26.3137 40.3191 26.3137 44.0306C26.3137 49.0765 28.1903 51.1199 28.1903 54.873C28.1903 58.3343 20.8925 63.0883 21.7265 67.8006C19.1827 70.1359 16.1385 71.1367 13.4696 71.1367C13.7198 72.0959 13.97 73.055 14.2619 74.0141C11.2594 74.181 9.88322 76.7248 8.34025 77.5588C7.54792 76.3911 6.83899 75.1818 6.17176 73.9307C8.84067 73.6388 9.633 70.2193 13.3445 70.5112C13.136 69.5938 12.9691 68.6763 12.844 67.7589C8.54876 67.467 7.58962 71.095 4.7956 71.2201C4.21177 69.9274 3.66965 68.6346 3.16923 67.3002C7.0892 67.467 8.42365 63.6721 12.5104 63.7138C12.5104 63.3385 12.5104 62.9632 12.5104 62.5462C12.5104 61.8372 12.5521 61.17 12.5521 60.4611C7.71472 60.336 6.25516 64.5061 2.08498 64.0891C1.70967 62.7964 1.37605 61.4619 1.08414 60.0858C6.33856 60.753 8.25685 56.2909 13.0108 56.3326C13.2194 55.0815 13.5113 53.8305 13.8449 52.6211C8.09004 52.3709 6.08835 57.3751 0.500316 56.4577C0.333509 55.2901 0.250105 54.1224 0.166702 52.9548C6.67218 53.6637 9.13258 48.3259 15.0542 48.9931C15.5964 47.5752 16.2636 46.1991 17.0142 44.8646C9.5913 43.5719 7.04749 49.7854 0.125 48.8263C0.708825 22.1371 22.6023 0.744141 49.4582 0.744141C76.3558 0.744141 98.2076 22.1371 98.9582 48.868C92.0357 49.8271 89.4919 43.6136 82.069 44.9063C82.8196 46.2408 83.4451 47.6169 84.029 49.0348C89.9506 48.3259 92.3693 53.7054 98.9165 52.9548ZM28.1903 32.1873C24.5622 30.686 20.1419 31.0613 16.347 33.48C15.7632 29.9771 13.8449 26.8494 11.1343 24.9729C10.759 24.7227 10.3836 24.9729 10.3836 25.3899C10.9675 32.8128 6.63048 39.2349 1.29265 44.9063C6.79728 46.5744 11.4679 39.4851 18.5572 41.9455C21.1844 38.1506 24.4371 34.8145 28.1903 32.1873ZM49.4582 27.7252C44.871 27.7252 40.9927 30.3107 39.9919 33.6885C39.9085 33.9387 40.0336 34.1056 40.3255 33.9804C41.1595 33.6051 42.077 33.4383 43.1195 33.4383C44.9961 33.4383 46.6642 34.1473 47.6233 35.3149C48.0403 36.7328 48.082 38.8179 47.5816 39.9855C46.831 39.8187 46.5391 39.2349 45.7884 39.2349C45.0378 39.2349 44.454 39.777 43.1612 39.777C41.8685 39.777 41.7434 39.1515 40.9093 39.1515C39.9085 39.1515 39.7417 40.1523 39.7417 41.32C39.7417 46.4493 44.454 53.4969 49.4582 53.4969C54.4624 53.4969 59.1747 46.4493 59.1747 41.32C59.1747 40.1523 58.9245 39.1932 57.9237 39.0681C57.4232 39.4434 56.9228 39.777 55.7552 39.777C54.4624 39.777 54.1288 39.2349 53.3782 39.2349C52.4607 39.2349 52.5441 41.1532 51.4599 41.2783C50.751 39.5685 50.7092 37.3166 51.2931 35.3566C52.2522 34.1473 53.9203 33.48 55.7969 33.48C56.7977 33.48 57.7568 33.6468 58.5909 34.0222C58.8828 34.1473 59.0079 33.9805 58.9245 33.7302C57.9237 30.3107 54.0454 27.7252 49.4582 27.7252ZM56.7977 35.0647C55.6718 35.0647 54.4207 35.3983 53.5867 36.3158C53.5033 36.566 53.5033 36.9413 53.6284 37.1498C55.6301 36.4826 57.3815 36.4409 58.2573 37.4C58.716 36.983 58.8411 36.6077 58.8411 36.1906C58.8411 35.5234 58.1322 35.0647 56.7977 35.0647ZM40.7008 37.4C41.66 36.4409 43.7034 36.4826 45.7884 37.2332C45.8718 36.1906 43.9953 35.023 42.1187 35.023C40.7425 35.023 40.0753 35.4817 40.0753 36.1489C40.117 36.6077 40.2421 36.983 40.7008 37.4ZM72.3942 20.0521C68.7661 20.3023 65.5968 21.5533 63.053 23.6384C64.1372 20.5525 65.5134 17.8836 67.2649 15.2981C62.636 15.7985 58.7994 17.4665 55.9637 20.3857L53.7535 14.5891L58.6326 10.2521L52.0854 9.79342L49.4582 3.70497L46.831 9.79342L40.2838 10.2521L45.1629 14.5891L42.9527 20.3857C40.117 17.5083 36.2804 15.7985 31.6515 15.2981C33.403 17.8836 34.7792 20.5942 35.8634 23.6384C33.3196 21.5533 30.1503 20.3023 26.5222 20.0521C28.6907 22.8461 30.609 25.8486 32.0686 29.0596C32.2354 29.435 32.569 29.5601 32.9443 29.3516C37.9068 26.8911 43.4948 25.4733 49.4582 25.4733C55.3798 25.4733 60.9679 26.8494 65.9721 29.3516C66.3474 29.5601 66.681 29.435 66.8478 29.0596C68.2657 25.8486 70.2257 22.8461 72.3942 20.0521ZM80.3175 41.9455C87.4485 39.4851 92.1191 46.5327 97.6237 44.9063C92.2859 39.2349 87.9489 32.8128 88.5328 25.3899C88.5745 24.9729 88.1574 24.7227 87.8238 24.9729C85.1132 26.8494 83.1949 29.9771 82.6111 33.48C78.8579 31.0613 74.4376 30.7277 70.7678 32.1873C74.521 34.8145 77.732 38.1506 80.3175 41.9455Z" fill="#00643C"/>
</g>
<defs>
<clipPath id="clip0_1129_8540">
<rect width="99" height="100.209" fill="white" transform="translate(0 0.743164)"/>
</clipPath>
</defs>
</svg>
