<svg width="18" height="18" viewBox="0 0 18 18" fill="none" xmlns="http://www.w3.org/2000/svg">
<path d="M14.4905 4.17164C14.3766 4.11277 14.2658 4.04824 14.1583 3.97828C13.8459 3.77172 13.5594 3.52833 13.3051 3.25336C12.6687 2.52527 12.4311 1.78664 12.3436 1.26949H12.3471C12.2739 0.840234 12.3042 0.5625 12.3088 0.5625H9.41047V11.7696C9.41047 11.9201 9.41047 12.0688 9.40414 12.2157C9.40414 12.234 9.40238 12.2509 9.40133 12.2706C9.40133 12.2787 9.40133 12.2871 9.39957 12.2955V12.3019C9.36902 12.704 9.24012 13.0924 9.02421 13.433C8.8083 13.7736 8.512 14.0559 8.16137 14.2552C7.79593 14.4631 7.38262 14.5721 6.96219 14.5716C5.61184 14.5716 4.51742 13.4705 4.51742 12.1106C4.51742 10.7508 5.61184 9.64969 6.96219 9.64969C7.2178 9.64945 7.47185 9.68967 7.71488 9.76887L7.7184 6.81785C6.9806 6.72255 6.23105 6.78118 5.51704 6.99006C4.80304 7.19894 4.14007 7.55352 3.56996 8.03144C3.07041 8.46548 2.65044 8.98337 2.32895 9.5618C2.2066 9.77273 1.745 10.6204 1.6891 11.996C1.65395 12.7768 1.88844 13.5858 2.00023 13.9201V13.9271C2.07055 14.124 2.34301 14.7959 2.78703 15.3622C3.14508 15.8165 3.56809 16.2156 4.04246 16.5466V16.5396L4.04949 16.5466C5.45258 17.5001 7.00824 17.4375 7.00824 17.4375C7.27754 17.4266 8.17965 17.4375 9.2041 16.952C10.3404 16.4137 10.9872 15.6118 10.9872 15.6118C11.4005 15.1327 11.7291 14.5866 11.9589 13.9971C12.2212 13.3077 12.3088 12.4808 12.3088 12.1503V6.20473C12.3439 6.22582 12.8122 6.53555 12.8122 6.53555C12.8122 6.53555 13.4868 6.96797 14.5394 7.24957C15.2946 7.44996 16.312 7.49215 16.312 7.49215V4.61496C15.9555 4.65363 15.2316 4.54113 14.4905 4.17164Z" fill="black"/>
</svg>
