<svg width="18" height="18" viewBox="0 0 18 18" fill="none" xmlns="http://www.w3.org/2000/svg">
<path fill-rule="evenodd" clip-rule="evenodd" d="M14.5804 3.41371C13.8523 2.68529 12.9873 2.10808 12.0353 1.71529C11.0833 1.32251 10.0629 1.1219 9.03305 1.12504C4.71094 1.12504 1.1925 4.6259 1.19074 8.92972C1.18883 10.3002 1.55007 11.6466 2.2377 12.8321L1.125 16.875L5.28223 15.7898C6.43297 16.4132 7.72113 16.7394 9.02988 16.739H9.03305C13.3548 16.739 16.8729 13.2378 16.875 8.93429C16.8776 7.90793 16.6761 6.89129 16.2822 5.94353C15.8882 4.99577 15.3097 4.13582 14.5804 3.41371ZM9.03305 15.4217H9.03023C7.86353 15.422 6.71804 15.1098 5.71289 14.5175L5.47488 14.3768L3.00797 15.0209L3.66645 12.6271L3.51141 12.381C2.85904 11.3482 2.51341 10.1513 2.51473 8.92972C2.51473 5.35328 5.44008 2.4434 9.03551 2.4434C10.7603 2.44032 12.4156 3.12245 13.6375 4.33977C14.8594 5.55708 15.5477 7.20988 15.551 8.93465C15.5496 12.5114 12.6257 15.4217 9.03305 15.4217ZM12.6081 10.5634C12.4123 10.4657 11.4479 9.9939 11.2693 9.92886C11.0907 9.86383 10.9589 9.83113 10.8285 10.0266C10.698 10.2221 10.3222 10.6594 10.208 10.7912C10.0937 10.9231 9.97945 10.9375 9.78363 10.8398C9.58781 10.742 8.95606 10.5364 8.20758 9.87191C7.62504 9.35476 7.23199 8.71633 7.11773 8.52121C7.00348 8.32609 7.10543 8.22027 7.20352 8.12324C7.29176 8.0357 7.39934 7.89543 7.49742 7.78152C7.59551 7.66761 7.6282 7.58605 7.69324 7.45597C7.75828 7.3259 7.72594 7.21199 7.67707 7.11461C7.6282 7.01722 7.23621 6.05711 7.07309 5.66652C6.91383 5.28613 6.75246 5.33781 6.63223 5.33183C6.51797 5.32621 6.38613 5.3248 6.25641 5.3248C6.15723 5.32738 6.05966 5.35038 5.96977 5.39236C5.87989 5.43434 5.79962 5.4944 5.73398 5.56879C5.55434 5.76425 5.04809 6.23675 5.04809 7.19582C5.04809 8.15488 5.75121 9.083 5.84824 9.21308C5.94527 9.34316 7.22988 11.313 9.19547 12.1578C9.56046 12.3141 9.93339 12.4511 10.3127 12.5684C10.7821 12.7168 11.2092 12.696 11.5467 12.6457C11.9232 12.5898 12.7069 12.1739 12.8696 11.7183C13.0324 11.2627 13.0328 10.8725 12.9839 10.7912C12.935 10.71 12.8043 10.6608 12.6081 10.5634Z" fill="black"/>
</svg>
