<svg width="216" height="43" viewBox="0 0 216 43" fill="none" xmlns="http://www.w3.org/2000/svg">
<path d="M22.0432 1.74902L15.0474 9.32787V12.9424L10.3835 7.92869L1.63867 17.3731V27.5171H14.2312L11.5495 30.432V42.5582H32.537V30.432L22.0432 19.0055L19.1283 22.2702V17.6063H29.1557V9.32787L22.0432 1.74902ZM35.3354 11.6598V42.5582H59.1213V11.6598H35.3354ZM61.9196 11.6598V42.5582H85.2391V11.6598H61.9196ZM88.0375 11.6598V42.5582H111.24V11.6598H88.0375ZM114.039 11.6598V42.5582H137.358V11.6598H114.039ZM140.157 11.6598V42.5582H163.359V11.6598H140.157ZM166.158 11.6598V42.5582H189.477V11.6598H166.158ZM192.276 11.6598V42.5582H215.945V11.6598H192.276Z" fill="black"/>
<path d="M20.527 0L13.4146 7.69544V11.1934L8.75068 6.17967L0.00585938 15.6241V25.7681H12.5984L9.91665 28.683V40.9257H30.9042V28.683L20.4104 17.2564L17.4955 20.5212V15.8573H27.5229V7.69544L20.527 0ZM33.7026 9.91079V40.9257H57.4885V9.91079H33.7026ZM60.2868 9.91079V40.9257H83.6063V9.91079H60.2868ZM86.4047 9.91079V40.9257H109.608V9.91079H86.4047ZM112.406 9.91079V40.9257H135.725V9.91079H112.406ZM138.524 9.91079V40.9257H161.727V9.91079H138.524ZM164.525 9.91079V40.9257H187.845V9.91079H164.525ZM190.643 9.91079V40.9257H214.312V9.91079H190.643Z" fill="#DF0023"/>
<path d="M20.5275 3.38184L15.6304 8.62873V13.4092H25.308V8.62873L20.5275 3.38184ZM8.86776 10.2611L2.80469 16.9072V22.737H14.8142V16.9072L8.86776 10.2611ZM211.514 10.3777C210.18 10.3777 209.066 11.511 209.066 12.9428C209.066 14.4073 210.18 15.508 211.514 15.508C212.844 15.508 213.846 14.4073 213.846 12.9428C213.846 11.511 212.844 10.3777 211.514 10.3777ZM211.514 10.8441C212.638 10.8441 213.496 11.7302 213.496 12.9428C213.496 14.1881 212.638 15.1582 211.514 15.1582C210.381 15.1582 209.416 14.1881 209.416 12.9428C209.416 11.7302 210.381 10.8441 211.514 10.8441ZM210.465 11.4271V14.4586H210.931V13.176H211.398L212.214 14.4586H212.68L211.864 13.176C212.289 13.1247 212.564 12.8962 212.564 12.3598C212.564 11.7909 212.307 11.4271 211.631 11.4271H210.465ZM210.931 11.8935H211.514C211.813 11.8935 212.214 11.8515 212.214 12.2432C212.214 12.7096 211.785 12.8262 211.398 12.8262H210.931V11.8935ZM47.5781 14.925L38.3669 15.0416V35.5628H47.5781C50.7776 35.5628 53.991 33.4453 53.991 29.9661C53.991 27.6668 52.5079 25.6053 50.4931 24.7192C52.2514 23.847 53.5246 22.1587 53.5246 20.1719C53.5246 16.5247 50.2646 14.925 47.5781 14.925ZM70.0815 15.0416L63.3188 35.5628H67.2831L68.6823 31.2487H75.7948L76.9607 35.5628H81.0416L74.3956 15.0416H70.0815ZM90.1363 15.0416V29.1499C90.1363 34.3035 93.7741 36.4955 98.0649 36.4955C102.342 36.4955 105.994 34.2988 105.994 28.8001V15.0416H102.146V27.6341C102.146 28.7162 102.094 32.7644 98.0649 32.7644C94.0399 32.7644 94.1006 28.7162 94.1006 27.6341V15.0416H90.1363ZM116.254 15.0416V35.5628H120.218V27.6341H127.914V35.5628H131.878V15.0416H127.914V24.1362H120.218V15.0416H116.254ZM148.318 15.0416L141.556 35.5628H145.52L146.803 31.2487H154.032L155.198 35.5628H159.162L152.633 15.0416H148.318ZM168.373 15.0416V29.1499C168.373 34.3035 172.011 36.4955 176.302 36.4955C180.579 36.4955 184.23 34.2988 184.23 28.8001V15.0416H180.266V27.6341C180.266 28.7162 180.331 32.7644 176.302 32.7644C172.272 32.7644 172.221 28.7162 172.221 27.6341V15.0416H168.373ZM200.088 15.0416C196.865 15.0416 194.841 17.644 194.841 21.1047C194.841 24.7192 197.639 27.0605 200.787 27.1677H204.985C206.141 27.1677 207.084 27.6528 207.084 29.2665C207.084 30.9781 206.006 31.4818 204.985 31.4818H195.774V35.5628H205.568C208.912 35.5534 211.048 32.867 211.048 29.2665C211.048 25.5307 208.222 23.1335 204.985 22.9702H200.671C199.654 22.9702 198.689 22.0514 198.689 20.9881C198.689 19.6169 199.649 19.1225 200.671 19.1225H209.765V15.0416H200.088ZM42.3313 18.3063H47.2284C47.4382 18.3063 49.5603 18.5115 49.5603 20.6383C49.5603 22.5458 47.9699 23.4366 47.2284 23.4366H42.3313V18.3063ZM72.1802 19.8221L74.6288 27.8673H69.6151L72.1802 19.8221ZM150.417 19.8221L152.866 27.8673H147.852L150.417 19.8221ZM20.4109 22.2706L13.2985 30.1993V37.3117H27.64V30.0827L20.4109 22.2706ZM42.3313 26.4682H47.2284C47.6714 26.4682 49.9101 26.8319 49.9101 29.4997C49.9101 32.1721 47.2936 32.1814 47.2284 32.1814H42.3313V26.4682Z" fill="white"/>
</svg>
