<svg width="115" height="115" viewBox="0 0 115 115" fill="none" xmlns="http://www.w3.org/2000/svg">
<g clip-path="url(#clip0_864_3838)">
<path d="M0 34.5V37.6472H22.3845V34.5H0ZM25.556 34.5V37.6472H57.455C57.455 37.6472 54.1967 34.5 49.8813 34.5H25.556ZM63.7126 34.5V37.6472H83.011L81.8656 34.5H63.7126ZM96.847 34.5L95.7015 37.6472H114.825V34.5H96.847ZM0 40.6205V43.7677H22.3845V40.6205H0ZM25.556 40.625V43.7678H61.1565C61.1565 43.7678 60.7408 41.3456 60.0155 40.625H25.556ZM63.7126 40.625V43.7678H85.1269L84.0667 40.625H63.7126ZM94.556 40.625L93.4958 43.7678H114.825V40.625H94.556ZM6.43275 46.7411V49.8928H16.1269V46.7411H6.43275ZM31.9889 46.7411V49.8928H41.683V46.7411H31.9889ZM51.1121 46.7411V49.8928H60.8063C60.8063 49.8928 61.4217 48.2284 61.4217 46.7411H51.1121ZM70.1455 46.7411V49.8928H87.3326L86.1871 46.7411H70.1455ZM92.4447 46.7411L91.2947 49.8928H108.567V46.7411H92.4447ZM6.43275 52.8662V56.0134H16.1269V52.8662H6.43275ZM31.9889 52.8662V56.0134H56.7497C56.7497 56.0134 58.8211 54.3986 59.481 52.8662H31.9889ZM70.1455 52.8662V56.0134H79.8397V54.2615L80.4551 56.0134H98.2128L98.8731 54.2615V56.0134H108.567V52.8662H90.3693L89.4035 55.5319L88.4332 52.8662H70.1455ZM6.43275 58.9867V62.1339H16.1269V58.9867H6.43275ZM31.9889 58.9867V62.1339H59.481C58.821 60.6066 56.7497 58.9867 56.7497 58.9867H31.9889ZM70.1455 58.9867V62.1339H79.8397V58.9867H70.1455ZM81.6006 58.9867L82.773 62.1339H96.0878L97.2019 58.9867H81.6006ZM98.873 58.9867V62.1339H108.567V58.9867H98.873ZM6.43275 65.1073V68.2543H16.1269V65.1073H6.43275ZM31.9889 65.1073V68.2543H41.683V65.1073H31.9889ZM51.1121 65.1073V68.2543H61.4216C61.4216 66.7691 60.8061 65.1073 60.8061 65.1073H51.1121ZM70.1455 65.1073V68.2543H79.8397V65.1073H70.1455ZM83.8018 65.1073L84.9383 68.2543H93.8643L95.0098 65.1073H83.8018ZM98.873 65.1073V68.2543H108.567V65.1073H98.873ZM0.175145 71.2278V74.3795H22.5597V71.2278H0.175145ZM25.556 71.2278V74.3795H60.0155C60.7408 73.6578 61.1565 71.2278 61.1565 71.2278H25.556ZM63.8879 71.2278V74.3795H79.8397V71.2278H63.8879ZM86.0074 71.2278L87.1753 74.3795H91.7169L92.8129 71.2278H86.0074ZM98.873 71.2278V74.3795H115V71.2278H98.873ZM0.175145 77.3528V80.5H22.5597V77.3528H0.175145ZM25.556 77.3528V80.4955H49.8813C54.1967 80.4955 57.455 77.3528 57.455 77.3528H25.556ZM63.8879 77.3528V80.5H79.8397V77.3528H63.8879ZM88.222 77.3528L89.3451 80.4911L89.5383 80.4955L90.6793 77.3528H88.222ZM98.873 77.3528V80.5H115V77.3528H98.873Z" fill="white"/>
</g>
<defs>
<clipPath id="clip0_864_3838">
<rect width="115" height="115" fill="white"/>
</clipPath>
</defs>
</svg>
