<svg width="20" height="20" viewBox="0 0 20 20" fill="none" xmlns="http://www.w3.org/2000/svg">
<path d="M6.38803 18.2599C3.83959 17.6729 2.55352 15.0873 3.41372 12.2802L3.55446 11.8209L3.13636 11.5567C-0.224326 9.43341 1.05323 3.68439 5.21627 2.19707C7.05218 1.54117 9.67781 2.08124 9.58055 3.09477C9.54337 3.48213 9.02922 3.62936 8.71207 3.34346C8.01941 2.71904 5.58753 3.04442 4.59912 3.89375C2.4544 5.7367 1.91388 8.43618 3.40749 9.84499C4.18219 10.5757 4.10403 10.584 4.64711 9.71346C8.54319 3.46817 16.9056 -0.284282 17.8213 3.80186C18.5098 6.87415 11.5534 11.9319 6.19062 12.2582L5.20972 12.3179L5.03239 12.9721C4.28756 15.7201 6.07915 17.2209 9.30262 16.5494C10.5845 16.2823 11.1023 16.4451 11.1023 17.1154C11.1023 17.9999 8.25764 18.6905 6.38803 18.2599ZM7.57001 10.5278C9.40602 10.1221 11.9163 8.89627 13.6585 7.55464C14.2191 7.12293 15.467 5.88499 15.5131 5.78033C15.5281 5.74627 15.6294 5.62501 15.751 5.43611C16.1326 4.84372 16.3281 4.17038 15.992 3.93524C14.5361 2.91689 9.43503 6.12944 6.71654 9.77668C5.87346 10.9078 5.86881 10.9037 7.57001 10.5278Z" fill="black"/>
<path d="M16.9766 16.1807C15.0936 16.1807 14.4473 15.0439 14.4473 13.6514C14.4473 15.5343 13.3105 16.1807 11.918 16.1807C13.3105 16.1807 14.4473 16.827 14.4473 18.71C14.4473 16.827 15.584 16.1807 16.9766 16.1807Z" fill="black" stroke="black" stroke-width="0.168619" stroke-linecap="square"/>
</svg>
