<svg width="21" height="21" viewBox="0 0 21 21" fill="none" xmlns="http://www.w3.org/2000/svg">
<path d="M13.7812 7.875H15.4219C15.857 7.875 16.2743 8.04785 16.582 8.35553C16.8896 8.6632 17.0625 9.0805 17.0625 9.51562V17.3906C17.0625 17.8257 16.8896 18.243 16.582 18.5507C16.2743 18.8584 15.857 19.0312 15.4219 19.0312H5.57812C5.143 19.0313 4.7257 18.8584 4.41803 18.5507C4.11035 18.243 3.9375 17.8257 3.9375 17.3906V9.51562C3.9375 9.0805 4.11035 8.6632 4.41803 8.35553C4.7257 8.04785 5.143 7.875 5.57812 7.875H7.21875M13.7812 5.25L10.5 1.96875M10.5 1.96875L7.21875 5.25M10.5 1.96875V13.166" stroke="black" stroke-width="1.3125" stroke-linecap="round" stroke-linejoin="round"/>
</svg>
